ply
format ascii 1.0
element vertex 49
property float x
property float y
property float z
property uchar red
property uchar green
property uchar blue
end_header
0.9223 -0.2238 -0.3152 255 255 255 
0.8578 0.2858 -0.4272 255 255 255 
-0.2334 0.9572 -0.1711 255 255 255 
-0.8346 0.3139 -0.4526 255 255 255 
0.9207 0.3856 0.0605 255 255 255 
-0.7318 0.5444 0.4100 255 255 255 
-0.1286 -0.7778 0.6153 255 255 255 
-0.7090 0.7007 -0.0802 255 255 255 
-0.0477 0.5205 -0.8525 255 255 255 
-0.0422 -0.3406 0.9392 255 255 255 
0.6289 -0.5789 -0.5190 255 255 255 
-0.0225 0.1799 0.9834 255 255 255 
-0.3316 -0.6033 -0.7253 255 255 255 
-0.0114 -0.9855 0.1690 255 255 255 
-0.8851 -0.4393 0.1536 255 255 255 
0.9829 -0.0920 0.1594 255 255 255 
-0.5226 -0.8360 0.1674 255 255 255 
0.3814 0.4739 0.7937 255 255 255 
0.4442 -0.8208 0.3591 255 255 255 
0.6364 0.7329 -0.2405 255 255 255 
-0.4914 -0.1799 0.8521 255 255 255 
-0.4904 0.2520 -0.8343 255 255 255 
-0.4329 0.7048 -0.5620 255 255 255 
0.2356 0.9716 0.0223 255 255 255 
-0.2163 -0.1535 -0.9642 255 255 255 
-0.6057 -0.5514 0.5737 255 255 255 
0.6533 -0.0783 -0.7530 255 255 255 
-0.7059 -0.6293 -0.3252 255 255 255 
0.4999 0.4901 -0.7141 255 255 255 
-0.3418 0.8866 0.3117 255 255 255 
0.1483 0.8460 -0.5121 255 255 255 
0.3502 -0.5551 0.7545 255 255 255 
0.7697 -0.3645 0.5241 255 255 255 
-0.2445 -0.9252 -0.2904 255 255 255 
0.2346 0.1108 -0.9658 255 255 255 
0.2467 -0.4054 -0.8802 255 255 255 
-0.5548 0.2930 0.7787 255 255 255 
-0.9682 0.2412 0.0671 255 255 255 
-0.8720 -0.0368 0.4881 255 255 255 
-0.6898 -0.2162 -0.6910 255 255 255 
0.1700 0.8518 0.4955 255 255 255 
0.8012 -0.5977 0.0276 255 255 255 
0.3807 -0.9099 -0.1646 255 255 255 
-0.1848 0.6212 0.7615 255 255 255 
0.1327 -0.8008 -0.5841 255 255 255 
-0.9591 -0.1541 -0.2373 255 255 255 
0.6314 0.7068 0.3190 255 255 255 
0.4573 -0.0478 0.8881 255 255 255 
0.7948 0.2071 0.5704 255 255 255 

