ply
format ascii 1.0
element vertex 24
property float x
property float y
property float z
property uchar red
property uchar green
property uchar blue
end_header
0.0000 0.0000 0.0000 255 255 255 
0.6299 -0.2149 -0.7423 255 255 255 
-0.3022 0.7119 -0.6461 255 255 255 
-0.2966 -0.9471 -0.1752 255 255 255 
0.2247 0.2260 0.9405 255 255 255 
-0.9917 0.0428 0.1434 255 255 255 
0.5258 0.7599 0.4020 255 255 255 
-0.2035 -0.0206 -0.9718 255 255 255 
0.3777 0.4709 -0.8007 255 255 255 
0.0201 -0.8949 0.4631 255 255 255 
0.1504 0.9692 -0.1638 255 255 255 
-0.6206 0.2209 0.7483 255 255 255 
-0.7326 -0.4753 -0.4757 255 255 255 
-0.1841 0.7913 0.5883 255 255 255 
-0.7168 -0.5765 0.3743 255 255 255 
0.5800 -0.4954 0.6381 255 255 255 
0.0465 -0.6561 -0.7571 255 255 255 
0.8635 0.1413 0.4999 255 255 255 
0.5038 -0.8428 -0.1487 255 255 255 
-0.6553 0.7446 0.0504 255 255 255 
0.9561 -0.2905 -0.0871 255 255 255 
-0.8158 0.2253 -0.5471 255 255 255 
-0.2005 -0.3558 0.9158 255 255 255 
0.8413 0.4655 -0.2484 255 255 255 

