ply
format ascii 1.0
element vertex 30
property float x
property float y
property float z
property uchar red
property uchar green
property uchar blue
end_header
0.0000 0.0000 0.0000 255 255 255 
0.3652 -0.3791 -0.8628 255 255 255 
-0.4803 0.6644 0.5948 255 255 255 
0.3332 -0.4217 0.8705 255 255 255 
-0.6308 0.8077 -0.0669 255 255 255 
0.1518 -0.9318 0.3939 255 255 255 
-1.0532 0.2475 0.1430 255 255 255 
0.3315 -0.9158 -0.2675 255 255 255 
1.0801 0.0438 0.1552 255 255 255 
-0.8004 0.3207 -0.6279 255 255 255 
0.7509 -0.5757 0.3404 255 255 255 
0.1998 0.3141 -0.9507 255 255 255 
0.7376 0.7613 0.2401 255 255 255 
-0.5152 -0.0709 -0.0869 255 255 255 
-0.3344 -0.0976 -0.9577 255 255 255 
0.4523 0.8460 -0.4607 255 255 255 
0.0082 1.0084 0.0926 255 255 255 
0.8411 -0.4832 -0.3561 255 255 255 
-0.6912 0.0280 0.7590 255 255 255 
0.4739 0.2228 -0.0761 255 255 255 
-0.2315 0.7470 -0.6350 255 255 255 
-0.1966 -0.7407 -0.6733 255 255 255 
-0.8860 -0.5346 0.2965 255 255 255 
-0.3921 -0.9375 -0.0178 255 255 255 
0.6689 0.1576 0.7531 255 255 255 
0.8571 0.2060 -0.6344 255 255 255 
-0.3328 -0.5827 0.7463 255 255 255 
-0.0618 0.1242 1.0014 255 255 255 
-0.8578 -0.4656 -0.4937 255 255 255 
0.1931 0.6978 0.7148 255 255 255 

