ply
format ascii 1.0
element vertex 66
property float x
property float y
property float z
property uchar red
property uchar green
property uchar blue
end_header
0.0000 0.0000 0.0000 255 255 255 
0.0000 0.0000 0.5000 255 255 255 
0.4330 0.0000 0.2500 255 255 255 
0.4330 0.0000 -0.2500 255 255 255 
-0.0000 -0.0000 -0.5000 255 255 255 
-0.0000 0.0000 0.5000 255 255 255 
-0.0000 0.4330 0.2500 255 255 255 
-0.0000 0.4330 -0.2500 255 255 255 
0.0000 -0.0000 -0.5000 255 255 255 
-0.0000 -0.0000 0.5000 255 255 255 
-0.4330 -0.0000 0.2500 255 255 255 
-0.4330 -0.0000 -0.2500 255 255 255 
0.0000 0.0000 -0.5000 255 255 255 
0.0000 -0.0000 0.5000 255 255 255 
0.0000 -0.4330 0.2500 255 255 255 
0.0000 -0.4330 -0.2500 255 255 255 
-0.0000 0.0000 -0.5000 255 255 255 
0.0000 0.0000 1.0000 255 255 255 
0.5000 0.0000 0.8660 255 255 255 
0.8660 0.0000 0.5000 255 255 255 
1.0000 0.0000 -0.0000 255 255 255 
0.8660 0.0000 -0.5000 255 255 255 
0.5000 0.0000 -0.8660 255 255 255 
-0.0000 -0.0000 -1.0000 255 255 255 
0.0000 0.0000 1.0000 255 255 255 
0.3117 0.3909 0.8660 255 255 255 
0.5400 0.6771 0.5000 255 255 255 
0.6235 0.7818 -0.0000 255 255 255 
0.5400 0.6771 -0.5000 255 255 255 
0.3117 0.3909 -0.8660 255 255 255 
-0.0000 -0.0000 -1.0000 255 255 255 
-0.0000 0.0000 1.0000 255 255 255 
-0.1113 0.4875 0.8660 255 255 255 
-0.1927 0.8443 0.5000 255 255 255 
-0.2225 0.9749 -0.0000 255 255 255 
-0.1927 0.8443 -0.5000 255 255 255 
-0.1113 0.4875 -0.8660 255 255 255 
0.0000 -0.0000 -1.0000 255 255 255 
-0.0000 0.0000 1.0000 255 255 255 
-0.4505 0.2169 0.8660 255 255 255 
-0.7803 0.3758 0.5000 255 255 255 
-0.9010 0.4339 -0.0000 255 255 255 
-0.7803 0.3758 -0.5000 255 255 255 
-0.4505 0.2169 -0.8660 255 255 255 
0.0000 -0.0000 -1.0000 255 255 255 
-0.0000 -0.0000 1.0000 255 255 255 
-0.4505 -0.2169 0.8660 255 255 255 
-0.7803 -0.3758 0.5000 255 255 255 
-0.9010 -0.4339 -0.0000 255 255 255 
-0.7803 -0.3758 -0.5000 255 255 255 
-0.4505 -0.2169 -0.8660 255 255 255 
0.0000 0.0000 -1.0000 255 255 255 
-0.0000 -0.0000 1.0000 255 255 255 
-0.1113 -0.4875 0.8660 255 255 255 
-0.1927 -0.8443 0.5000 255 255 255 
-0.2225 -0.9749 -0.0000 255 255 255 
-0.1927 -0.8443 -0.5000 255 255 255 
-0.1113 -0.4875 -0.8660 255 255 255 
0.0000 0.0000 -1.0000 255 255 255 
0.0000 -0.0000 1.0000 255 255 255 
0.3117 -0.3909 0.8660 255 255 255 
0.5400 -0.6771 0.5000 255 255 255 
0.6235 -0.7818 -0.0000 255 255 255 
0.5400 -0.6771 -0.5000 255 255 255 
0.3117 -0.3909 -0.8660 255 255 255 
-0.0000 0.0000 -1.0000 255 255 255 

